<?xml version="1.0" encoding="UTF-8"?>
<svg width="18px" height="12px" viewBox="0 0 18 12" version="1.1" xmlns="http://www.w3.org/2000/svg" xmlns:xlink="http://www.w3.org/1999/xlink">
    <!-- Generator: Sketch 42 (36781) - http://www.bohemiancoding.com/sketch -->
    <title>icon-email-black</title>
    <defs></defs>
    <g id="Page-1" stroke="none" stroke-width="1" fill="none" fill-rule="evenodd">
        <path d="M0.818181818,0 C0.375,0 0,0.379310345 0,0.827586207 L0,11.1724138 C0,11.6206897 0.375,12 0.818181818,12 L17.1818182,12 C17.625,12 18,11.6206897 18,11.1724138 L18,0.827586207 C18,0.379310345 17.625,0 17.1818182,0 L0.818181818,0 Z M1.04337885,0.964292951 L16.9891529,0.964292951 L9,7.28027586 L1.04337885,0.964292951 Z M0.998051736,3 L5,6 L0.998051736,9.99549176 L0.998051736,3 Z M17,3 L17,10 L13,6 L17,3 Z M6,7 L8.99857557,9.5 C9.22030284,9.67462069 12.0010311,7 12.0010311,7 L15.9971511,11.00155 L2,11.00155 L6,7 Z" id="icon-email-black" fill="#000000"></path>
    </g>
</svg>