<?xml version="1.0" encoding="UTF-8"?>
<svg width="18px" height="12px" viewBox="0 0 18 12" version="1.1" xmlns="http://www.w3.org/2000/svg" xmlns:xlink="http://www.w3.org/1999/xlink">
    <!-- Generator: Sketch 42 (36781) - http://www.bohemiancoding.com/sketch -->
    <title>icon-email</title>
    <defs></defs>
    <g id="Page-1" stroke="none" stroke-width="1" fill="none" fill-rule="evenodd">
        <g id="Artboard-1-Copy-21" transform="translate(-224.000000, -64.000000)" fill="#FFFFFF">
            <path d="M224.818182,64 C224.375,64 224,64.3793103 224,64.8275862 L224,75.1724138 C224,75.6206897 224.375,76 224.818182,76 L241.181818,76 C241.625,76 242,75.6206897 242,75.1724138 L242,64.8275862 C242,64.3793103 241.625,64 241.181818,64 L224.818182,64 Z M225.043379,64.964293 L240.989153,64.964293 L233,71.2802759 L225.043379,64.964293 Z M224.998052,67 L229,70 L224.998052,73.9954918 L224.998052,67 Z M241,67 L241,74 L237,70 L241,67 Z M230,71 L232.998576,73.5 C233.220303,73.6746207 236.001031,71 236.001031,71 L239.997151,75.00155 L226,75.00155 L230,71 Z" id="icon-email"></path>
        </g>
    </g>
</svg>